<svg xmlns="http://www.w3.org/2000/svg" xmlns:xlink="http://www.w3.org/1999/xlink" version="1.1" id="Layer_1" x="0px" y="0px" viewBox="-0.0512388 0 100.102 171.2" style="enable-background:new 0 0 100 171.2;" xml:space="preserve" width="100%" height="100%"  preserveAspectRatio="xMidYMid meet"><rect id="svgEditorBackground" x="0" y="0" width="100" height="171.1999969482422" style="fill:none;stroke:none;"/>
<g transform="translate(0.000000,750.000000) scale(0.100000,-0.100000)">
	<path d="M253.7,7486.3c-151.6,-74.69999999999982,-233.3,-224.39999999999964,-251.4,-460.89999999999964c-3.2,-41.5,-3,-726.6999999999998,0,-763.8999999999996c7.5,-86.30000000000018,21.9,-155.69999999999982,44.5,-213.69999999999982c51.400000000000006,-130.60000000000036,124.4,-207.80000000000018,239.30000000000004,-253.19999999999982l17.80000000000001,-6.800000000000182l197.90000000000003,0.5l197.89999999999998,0.6999999999998181l22.799999999999955,10c98.39999999999998,42.69999999999982,167.60000000000002,112.80000000000018,214.79999999999995,217.10000000000036c34.200000000000045,75.60000000000036,52.5,154.80000000000018,60.299999999999955,260.3000000000002c3.2000000000000455,42,3,700.8999999999996,0,743.1000000000004c-8.200000000000045,113.19999999999982,-29.200000000000045,200.39999999999964,-66,276.1999999999998c-44.10000000000002,90.39999999999964,-104.60000000000002,151.60000000000036,-190.89999999999998,193.39999999999964l-22.799999999999955,11h-218.09999999999997h-218.3l-27.80000000000001,-13.800000000001091ZM541.1,7263.7c52.299999999999955,-15.800000000000182,85.60000000000002,-58.69999999999982,101.79999999999995,-131.30000000000018c11.399999999999977,-51.600000000000364,11.200000000000045,-43.80000000000018,11.200000000000045,-488.60000000000036c0,-384,-0.20000000000004547,-418.6999999999998,-3.8999999999999773,-444.3000000000002c-9.799999999999955,-68.30000000000018,-28.5,-112.80000000000018,-59.39999999999998,-141.80000000000018c-24,-22.399999999999636,-52.5,-32.600000000000364,-92,-32.600000000000364c-35.19999999999999,0,-57.5,6.800000000000182,-82.19999999999999,25.800000000000182c-40.89999999999998,30.800000000000182,-63.19999999999999,89,-69.90000000000003,182c-1.6000000000000227,21.699999999999818,-2.1000000000000227,171.19999999999982,-1.6000000000000227,434.89999999999964c0.8999999999999773,362.10000000000036,1.3999999999999773,404.10000000000036,4.800000000000011,425.10000000000036c7.100000000000023,43.399999999999636,21,89,34.19999999999999,112.60000000000036c16.399999999999977,28.800000000000182,49.5,52.69999999999982,83.80000000000001,60.5c18.399999999999977,4.100000000001273,55.39999999999992,3.0000000000009095,73.19999999999999,-2.2999999999992724Z" style="fill-opacity:0.2;fill:silver;"/>
</g>
</svg>